<svg width="41" height="47" viewBox="0 0 41 47" fill="none" xmlns="http://www.w3.org/2000/svg">
<path fill-rule="evenodd" clip-rule="evenodd" d="M28.2107 25.7693C19.7548 31.1194 9.56153 31.0414 8.81333 42.6099C1.99961 36.4102 3.18497 23.972 10.2453 16.7538C3.46379 18.921 -0.939977 25.9355 0.171125 33.3892C1.39431 41.5956 8.83575 47.2245 16.7941 45.9647C24.7513 44.7033 30.2115 37.0301 28.9897 28.8237C28.8313 27.7588 28.5665 26.7374 28.2107 25.7679V25.7693Z" fill="url(#paint0_radial_71_792)"/>
<path d="M38.0702 12.051H35.8858V14.3034H38.0702V12.051Z" fill="#B6C932"/>
<path d="M34.9945 9.58618H28.0309V16.7668H34.9945V9.58618Z" fill="#75AD40"/>
<path d="M31.8029 6.62582H29.5681V8.93027H31.8029V6.62582Z" fill="#5C8834"/>
<path d="M33.0051 17.5311H30.3023V20.3181H33.0051V17.5311Z" fill="#75AD40"/>
<path d="M37.8504 2.52693H35.8132V4.62766H37.8504V2.52693Z" fill="#75AD40"/>
<path d="M35.813 5.12756H32.61V8.43037H35.813V5.12756Z" fill="#B6C932"/>
<path d="M39.9561 4.74472H38.2622V6.49147H39.9561V4.74472Z" fill="#B6C932"/>
<path d="M26.4872 10.323H20.8925V16.0921H26.4872V10.323Z" fill="#B6C932"/>
<path d="M40.343 7.1907H36.6216V11.0281H40.343V7.1907Z" fill="#5C8834"/>
<path d="M39.6102 0H38.0648V1.59361H39.6102V0Z" fill="#5C8834"/>
<path d="M22.2529 24.4257C24.1331 23.6441 26.1493 22.9188 28.265 22.218C28.67 22.0837 29.0833 21.9377 29.5009 21.7774V17.5311H22.2515V24.4243L22.2529 24.4257Z" fill="#5C8834"/>
<path d="M21.4528 24.7652V18.411H10.3137C6.23359 22.8162 3.61487 28.5073 4.86328 35.6085C5.28222 37.9909 6.75341 41.4381 8.87474 43.0217C7.63052 33.3834 13.0572 28.4134 21.4528 24.7652Z" fill="#75AD40"/>
<path d="M11.3228 17.3751H19.1005V11.6161C16.3921 13.1693 13.6697 15.0821 11.3228 17.3751Z" fill="#5C8834"/>
<defs>
<radialGradient id="paint0_radial_71_792" cx="0" cy="0" r="1" gradientUnits="userSpaceOnUse" gradientTransform="translate(26.6399 31.1094) scale(20.58 21.2212)">
<stop offset="0.44" stop-color="#FFED00"/>
<stop offset="1" stop-color="#EAB818"/>
</radialGradient>
</defs>
</svg>
